<svg width="354" height="62" viewBox="0 0 354 62" fill="none" xmlns="http://www.w3.org/2000/svg">
<g filter="url(#filter0_d_34_489)">
<rect x="4" y="8" width="313" height="26" rx="10" fill="url(#paint0_linear_34_489)"/>
</g>
<path d="M95.7727 49H94.3636C94.2803 48.5947 94.1345 48.2386 93.9261 47.9318C93.7216 47.625 93.4716 47.3674 93.1761 47.1591C92.8845 46.947 92.5606 46.7879 92.2045 46.6818C91.8485 46.5758 91.4773 46.5227 91.0909 46.5227C90.3864 46.5227 89.7481 46.7008 89.1761 47.0568C88.608 47.4129 88.1553 47.9375 87.8182 48.6307C87.4848 49.3239 87.3182 50.1742 87.3182 51.1818C87.3182 52.1894 87.4848 53.0398 87.8182 53.733C88.1553 54.4261 88.608 54.9508 89.1761 55.3068C89.7481 55.6629 90.3864 55.8409 91.0909 55.8409C91.4773 55.8409 91.8485 55.7879 92.2045 55.6818C92.5606 55.5758 92.8845 55.4186 93.1761 55.2102C93.4716 54.9981 93.7216 54.7386 93.9261 54.4318C94.1345 54.1212 94.2803 53.7652 94.3636 53.3636H95.7727C95.6667 53.9583 95.4735 54.4905 95.1932 54.9602C94.9129 55.4299 94.5644 55.8295 94.1477 56.1591C93.7311 56.4848 93.2633 56.733 92.7443 56.9034C92.2292 57.0739 91.678 57.1591 91.0909 57.1591C90.0985 57.1591 89.2159 56.9167 88.4432 56.4318C87.6705 55.947 87.0625 55.2576 86.6193 54.3636C86.1761 53.4697 85.9545 52.4091 85.9545 51.1818C85.9545 49.9545 86.1761 48.8939 86.6193 48C87.0625 47.1061 87.6705 46.4167 88.4432 45.9318C89.2159 45.447 90.0985 45.2045 91.0909 45.2045C91.678 45.2045 92.2292 45.2898 92.7443 45.4602C93.2633 45.6307 93.7311 45.8807 94.1477 46.2102C94.5644 46.536 94.9129 46.9337 95.1932 47.4034C95.4735 47.8693 95.6667 48.4015 95.7727 49ZM103.368 53.4318V48.2727H104.709V57H103.368V55.5227H103.277C103.072 55.9659 102.754 56.3428 102.322 56.6534C101.891 56.9602 101.345 57.1136 100.686 57.1136C100.141 57.1136 99.6558 56.9943 99.2315 56.7557C98.8073 56.5133 98.474 56.1496 98.2315 55.6648C97.9891 55.1761 97.8679 54.5606 97.8679 53.8182V48.2727H99.2088V53.7273C99.2088 54.3636 99.3868 54.8712 99.7429 55.25C100.103 55.6288 100.561 55.8182 101.118 55.8182C101.451 55.8182 101.79 55.733 102.135 55.5625C102.483 55.392 102.775 55.1307 103.01 54.7784C103.249 54.4261 103.368 53.9773 103.368 53.4318ZM107.165 57V48.2727H108.46V49.5909H108.551C108.71 49.1591 108.998 48.8087 109.415 48.5398C109.831 48.2708 110.301 48.1364 110.824 48.1364C110.922 48.1364 111.045 48.1383 111.193 48.142C111.341 48.1458 111.453 48.1515 111.528 48.1591V49.5227C111.483 49.5114 111.379 49.4943 111.216 49.4716C111.057 49.4451 110.888 49.4318 110.71 49.4318C110.286 49.4318 109.907 49.5208 109.574 49.6989C109.244 49.8731 108.983 50.1155 108.79 50.4261C108.6 50.733 108.506 51.0833 108.506 51.4773V57H107.165ZM113.118 57V48.2727H114.413V49.5909H114.504C114.663 49.1591 114.951 48.8087 115.368 48.5398C115.785 48.2708 116.254 48.1364 116.777 48.1364C116.875 48.1364 116.999 48.1383 117.146 48.142C117.294 48.1458 117.406 48.1515 117.482 48.1591V49.5227C117.436 49.5114 117.332 49.4943 117.169 49.4716C117.01 49.4451 116.841 49.4318 116.663 49.4318C116.239 49.4318 115.86 49.5208 115.527 49.6989C115.197 49.8731 114.936 50.1155 114.743 50.4261C114.554 50.733 114.459 51.0833 114.459 51.4773V57H113.118ZM122.464 57.1818C121.624 57.1818 120.898 56.9962 120.288 56.625C119.682 56.25 119.214 55.7273 118.885 55.0568C118.559 54.3826 118.396 53.5985 118.396 52.7045C118.396 51.8106 118.559 51.0227 118.885 50.3409C119.214 49.6553 119.673 49.1212 120.26 48.7386C120.851 48.3523 121.54 48.1591 122.328 48.1591C122.783 48.1591 123.232 48.2348 123.675 48.3864C124.118 48.5379 124.521 48.7841 124.885 49.125C125.249 49.4621 125.538 49.9091 125.754 50.4659C125.97 51.0227 126.078 51.7083 126.078 52.5227V53.0909H119.351V51.9318H124.714C124.714 51.4394 124.616 51 124.419 50.6136C124.226 50.2273 123.949 49.9223 123.589 49.6989C123.233 49.4754 122.813 49.3636 122.328 49.3636C121.794 49.3636 121.332 49.4962 120.942 49.7614C120.555 50.0227 120.258 50.3636 120.05 50.7841C119.841 51.2045 119.737 51.6553 119.737 52.1364V52.9091C119.737 53.5682 119.851 54.1269 120.078 54.5852C120.309 55.0398 120.629 55.3864 121.038 55.625C121.447 55.8598 121.923 55.9773 122.464 55.9773C122.817 55.9773 123.135 55.928 123.419 55.8295C123.707 55.7273 123.955 55.5758 124.163 55.375C124.372 55.1705 124.533 54.9167 124.646 54.6136L125.942 54.9773C125.805 55.4167 125.576 55.803 125.254 56.1364C124.932 56.4659 124.535 56.7235 124.061 56.9091C123.588 57.0909 123.055 57.1818 122.464 57.1818ZM129.459 51.75V57H128.118V48.2727H129.413V49.6364H129.527C129.732 49.1932 130.042 48.8371 130.459 48.5682C130.875 48.2955 131.413 48.1591 132.072 48.1591C132.663 48.1591 133.18 48.2803 133.624 48.5227C134.067 48.7614 134.411 49.125 134.658 49.6136C134.904 50.0985 135.027 50.7121 135.027 51.4545V57H133.686V51.5455C133.686 50.8598 133.508 50.3258 133.152 49.9432C132.796 49.5568 132.307 49.3636 131.686 49.3636C131.258 49.3636 130.875 49.4564 130.538 49.642C130.205 49.8277 129.942 50.0985 129.749 50.4545C129.555 50.8106 129.459 51.2424 129.459 51.75ZM141.273 48.2727V49.4091H136.75V48.2727H141.273ZM138.068 46.1818H139.409V54.5C139.409 54.8788 139.464 55.1629 139.574 55.3523C139.688 55.5379 139.831 55.6629 140.006 55.7273C140.184 55.7879 140.371 55.8182 140.568 55.8182C140.716 55.8182 140.837 55.8106 140.932 55.7955C141.027 55.7765 141.102 55.7614 141.159 55.75L141.432 56.9545C141.341 56.9886 141.214 57.0227 141.051 57.0568C140.888 57.0947 140.682 57.1136 140.432 57.1136C140.053 57.1136 139.682 57.0322 139.318 56.8693C138.958 56.7064 138.659 56.4583 138.42 56.125C138.186 55.7917 138.068 55.3712 138.068 54.8636V46.1818ZM147.972 57V45.3636H154.994V46.6136H149.381V50.5455H154.631V51.7955H149.381V55.75H155.085V57H147.972ZM158.693 51.75V57H157.352V48.2727H158.648V49.6364H158.761C158.966 49.1932 159.277 48.8371 159.693 48.5682C160.11 48.2955 160.648 48.1591 161.307 48.1591C161.898 48.1591 162.415 48.2803 162.858 48.5227C163.301 48.7614 163.646 49.125 163.892 49.6136C164.138 50.0985 164.261 50.7121 164.261 51.4545V57H162.92V51.5455C162.92 50.8598 162.742 50.3258 162.386 49.9432C162.03 49.5568 161.542 49.3636 160.92 49.3636C160.492 49.3636 160.11 49.4564 159.773 49.642C159.439 49.8277 159.176 50.0985 158.983 50.4545C158.79 50.8106 158.693 51.2424 158.693 51.75ZM170.371 57.1818C169.53 57.1818 168.804 56.9962 168.195 56.625C167.589 56.25 167.121 55.7273 166.791 55.0568C166.465 54.3826 166.303 53.5985 166.303 52.7045C166.303 51.8106 166.465 51.0227 166.791 50.3409C167.121 49.6553 167.579 49.1212 168.166 48.7386C168.757 48.3523 169.446 48.1591 170.234 48.1591C170.689 48.1591 171.138 48.2348 171.581 48.3864C172.024 48.5379 172.428 48.7841 172.791 49.125C173.155 49.4621 173.445 49.9091 173.661 50.4659C173.876 51.0227 173.984 51.7083 173.984 52.5227V53.0909H167.257V51.9318H172.621C172.621 51.4394 172.522 51 172.325 50.6136C172.132 50.2273 171.856 49.9223 171.496 49.6989C171.14 49.4754 170.719 49.3636 170.234 49.3636C169.7 49.3636 169.238 49.4962 168.848 49.7614C168.462 50.0227 168.164 50.3636 167.956 50.7841C167.748 51.2045 167.643 51.6553 167.643 52.1364V52.9091C167.643 53.5682 167.757 54.1269 167.984 54.5852C168.215 55.0398 168.536 55.3864 168.945 55.625C169.354 55.8598 169.829 55.9773 170.371 55.9773C170.723 55.9773 171.041 55.928 171.325 55.8295C171.613 55.7273 171.861 55.5758 172.07 55.375C172.278 55.1705 172.439 54.9167 172.553 54.6136L173.848 54.9773C173.712 55.4167 173.482 55.803 173.161 56.1364C172.839 56.4659 172.441 56.7235 171.967 56.9091C171.494 57.0909 170.962 57.1818 170.371 57.1818ZM176.024 57V48.2727H177.32V49.5909H177.411C177.57 49.1591 177.857 48.8087 178.274 48.5398C178.691 48.2708 179.161 48.1364 179.683 48.1364C179.782 48.1364 179.905 48.1383 180.053 48.142C180.2 48.1458 180.312 48.1515 180.388 48.1591V49.5227C180.342 49.5114 180.238 49.4943 180.075 49.4716C179.916 49.4451 179.748 49.4318 179.57 49.4318C179.145 49.4318 178.767 49.5208 178.433 49.6989C178.104 49.8731 177.842 50.1155 177.649 50.4261C177.46 50.733 177.365 51.0833 177.365 51.4773V57H176.024ZM185.234 60.4545C184.587 60.4545 184.03 60.3712 183.564 60.2045C183.098 60.0417 182.71 59.8258 182.399 59.5568C182.092 59.2917 181.848 59.0076 181.666 58.7045L182.734 57.9545C182.856 58.1136 183.009 58.2955 183.195 58.5C183.38 58.7083 183.634 58.8883 183.956 59.0398C184.282 59.1951 184.708 59.2727 185.234 59.2727C185.939 59.2727 186.52 59.1023 186.979 58.7614C187.437 58.4205 187.666 57.8864 187.666 57.1591V55.3864H187.553C187.454 55.5455 187.314 55.7424 187.132 55.9773C186.954 56.2083 186.696 56.4148 186.359 56.5966C186.026 56.7746 185.575 56.8636 185.007 56.8636C184.303 56.8636 183.67 56.697 183.109 56.3636C182.553 56.0303 182.111 55.5455 181.786 54.9091C181.464 54.2727 181.303 53.5 181.303 52.5909C181.303 51.697 181.46 50.9186 181.774 50.2557C182.089 49.589 182.526 49.0739 183.087 48.7102C183.647 48.3428 184.295 48.1591 185.03 48.1591C185.598 48.1591 186.049 48.2538 186.382 48.4432C186.719 48.6288 186.977 48.8409 187.155 49.0795C187.337 49.3144 187.477 49.5076 187.575 49.6591H187.712V48.2727H189.007V57.25C189.007 58 188.837 58.6098 188.496 59.0795C188.159 59.553 187.704 59.8996 187.132 60.1193C186.564 60.3428 185.931 60.4545 185.234 60.4545ZM185.189 55.6591C185.727 55.6591 186.181 55.536 186.553 55.2898C186.924 55.0436 187.206 54.6894 187.399 54.2273C187.592 53.7652 187.689 53.2121 187.689 52.5682C187.689 51.9394 187.594 51.3845 187.405 50.9034C187.215 50.4223 186.935 50.0455 186.564 49.7727C186.193 49.5 185.734 49.3636 185.189 49.3636C184.621 49.3636 184.147 49.5076 183.768 49.7955C183.393 50.0833 183.111 50.4697 182.922 50.9545C182.736 51.4394 182.643 51.9773 182.643 52.5682C182.643 53.1742 182.738 53.7102 182.928 54.1761C183.121 54.6383 183.405 55.0019 183.78 55.267C184.159 55.5284 184.628 55.6591 185.189 55.6591ZM192.325 60.2727C192.098 60.2727 191.895 60.2538 191.717 60.2159C191.539 60.1818 191.416 60.1477 191.348 60.1136L191.689 58.9318C192.015 59.0152 192.303 59.0455 192.553 59.0227C192.803 59 193.024 58.8883 193.217 58.6875C193.414 58.4905 193.594 58.1705 193.757 57.7273L194.007 57.0455L190.78 48.2727H192.234L194.643 55.2273H194.734L197.143 48.2727H198.598L194.893 58.2727C194.727 58.7235 194.52 59.0966 194.274 59.392C194.028 59.6913 193.742 59.9129 193.416 60.0568C193.094 60.2008 192.731 60.2727 192.325 60.2727ZM205.05 57V45.3636H206.459V55.75H211.868V57H205.05ZM217.527 57.1818C216.686 57.1818 215.961 56.9962 215.351 56.625C214.745 56.25 214.277 55.7273 213.947 55.0568C213.622 54.3826 213.459 53.5985 213.459 52.7045C213.459 51.8106 213.622 51.0227 213.947 50.3409C214.277 49.6553 214.735 49.1212 215.322 48.7386C215.913 48.3523 216.603 48.1591 217.391 48.1591C217.845 48.1591 218.294 48.2348 218.737 48.3864C219.18 48.5379 219.584 48.7841 219.947 49.125C220.311 49.4621 220.601 49.9091 220.817 50.4659C221.033 51.0227 221.141 51.7083 221.141 52.5227V53.0909H214.413V51.9318H219.777C219.777 51.4394 219.679 51 219.482 50.6136C219.288 50.2273 219.012 49.9223 218.652 49.6989C218.296 49.4754 217.875 49.3636 217.391 49.3636C216.857 49.3636 216.394 49.4962 216.004 49.7614C215.618 50.0227 215.321 50.3636 215.112 50.7841C214.904 51.2045 214.8 51.6553 214.8 52.1364V52.9091C214.8 53.5682 214.913 54.1269 215.141 54.5852C215.372 55.0398 215.692 55.3864 216.101 55.625C216.51 55.8598 216.985 55.9773 217.527 55.9773C217.879 55.9773 218.197 55.928 218.482 55.8295C218.769 55.7273 219.018 55.5758 219.226 55.375C219.434 55.1705 219.595 54.9167 219.709 54.6136L221.004 54.9773C220.868 55.4167 220.639 55.803 220.317 56.1364C219.995 56.4659 219.597 56.7235 219.124 56.9091C218.65 57.0909 218.118 57.1818 217.527 57.1818ZM230.051 48.2727L226.824 57H225.46L222.233 48.2727H223.688L226.097 55.2273H226.188L228.597 48.2727H230.051ZM235.168 57.1818C234.327 57.1818 233.601 56.9962 232.991 56.625C232.385 56.25 231.918 55.7273 231.588 55.0568C231.262 54.3826 231.099 53.5985 231.099 52.7045C231.099 51.8106 231.262 51.0227 231.588 50.3409C231.918 49.6553 232.376 49.1212 232.963 48.7386C233.554 48.3523 234.243 48.1591 235.031 48.1591C235.486 48.1591 235.935 48.2348 236.378 48.3864C236.821 48.5379 237.224 48.7841 237.588 49.125C237.952 49.4621 238.241 49.9091 238.457 50.4659C238.673 51.0227 238.781 51.7083 238.781 52.5227V53.0909H232.054V51.9318H237.418C237.418 51.4394 237.319 51 237.122 50.6136C236.929 50.2273 236.652 49.9223 236.293 49.6989C235.937 49.4754 235.516 49.3636 235.031 49.3636C234.497 49.3636 234.035 49.4962 233.645 49.7614C233.259 50.0227 232.961 50.3636 232.753 50.7841C232.545 51.2045 232.44 51.6553 232.44 52.1364V52.9091C232.44 53.5682 232.554 54.1269 232.781 54.5852C233.012 55.0398 233.332 55.3864 233.741 55.625C234.151 55.8598 234.626 55.9773 235.168 55.9773C235.52 55.9773 235.838 55.928 236.122 55.8295C236.41 55.7273 236.658 55.5758 236.866 55.375C237.075 55.1705 237.236 54.9167 237.349 54.6136L238.645 54.9773C238.509 55.4167 238.279 55.803 237.957 56.1364C237.635 56.4659 237.238 56.7235 236.764 56.9091C236.291 57.0909 235.759 57.1818 235.168 57.1818ZM242.162 45.3636V57H240.821V45.3636H242.162Z" fill="#6E7E7C"/>
<path d="M297.273 29.4091V14.4091H299.818V29.4091H297.273ZM291.045 23.1818V20.6364H306.045V23.1818H291.045Z" fill="#78A277"/>
<path d="M24.4545 19.7727V22.2727H14.2727V19.7727H24.4545Z" fill="white"/>
<defs>
<filter id="filter0_d_34_489" x="0" y="8" width="321" height="34" filterUnits="userSpaceOnUse" color-interpolation-filters="sRGB">
<feFlood flood-opacity="0" result="BackgroundImageFix"/>
<feColorMatrix in="SourceAlpha" type="matrix" values="0 0 0 0 0 0 0 0 0 0 0 0 0 0 0 0 0 0 127 0" result="hardAlpha"/>
<feOffset dy="4"/>
<feGaussianBlur stdDeviation="2"/>
<feComposite in2="hardAlpha" operator="out"/>
<feColorMatrix type="matrix" values="0 0 0 0 0 0 0 0 0 0 0 0 0 0 0 0 0 0 0.25 0"/>
<feBlend mode="normal" in2="BackgroundImageFix" result="effect1_dropShadow_34_489"/>
<feBlend mode="normal" in="SourceGraphic" in2="effect1_dropShadow_34_489" result="shape"/>
</filter>
<linearGradient id="paint0_linear_34_489" x1="4" y1="21" x2="317" y2="21" gradientUnits="userSpaceOnUse">
<stop stop-color="#749F81"/>
<stop offset="0.490385" stop-color="#9FD7B0"/>
<stop offset="0.9999" stop-color="#BCEECB"/>
</linearGradient>
</defs>
</svg>
