<svg width="118" height="187" viewBox="0 0 118 187" fill="none" xmlns="http://www.w3.org/2000/svg">
<g filter="url(#filter0_d_42_361)">
<rect x="28" y="179" width="179" height="26" rx="10" transform="rotate(-90 28 179)" fill="url(#paint0_linear_42_361)"/>
</g>
<path d="M36.375 168.139C35.6259 168.139 34.9879 167.935 34.4609 167.528C33.9339 167.117 33.5313 166.522 33.2528 165.743C32.9744 164.961 32.8352 164.016 32.8352 162.909C32.8352 161.809 32.9744 160.869 33.2528 160.09C33.5346 159.308 33.9389 158.711 34.4659 158.3C34.9962 157.886 35.6326 157.679 36.375 157.679C37.1174 157.679 37.7521 157.886 38.2791 158.3C38.8094 158.711 39.2138 159.308 39.4922 160.09C39.7739 160.869 39.9148 161.809 39.9148 162.909C39.9148 164.016 39.7756 164.961 39.4972 165.743C39.2188 166.522 38.8161 167.117 38.2891 167.528C37.7621 167.935 37.1241 168.139 36.375 168.139ZM36.375 167.045C37.1174 167.045 37.6941 166.687 38.1051 165.972C38.5161 165.256 38.7216 164.235 38.7216 162.909C38.7216 162.027 38.6271 161.277 38.4382 160.657C38.2526 160.037 37.9841 159.565 37.6328 159.24C37.2848 158.915 36.8655 158.753 36.375 158.753C35.6392 158.753 35.0642 159.116 34.6499 159.842C34.2356 160.564 34.0284 161.587 34.0284 162.909C34.0284 163.791 34.1212 164.54 34.3068 165.156C34.4924 165.773 34.7592 166.242 35.1072 166.563C35.4586 166.885 35.8812 167.045 36.375 167.045ZM42.9972 163.406V168H41.8239V157.818H42.9972V161.557H43.0966C43.2756 161.162 43.544 160.849 43.902 160.617C44.2633 160.382 44.7438 160.264 45.3438 160.264C45.8641 160.264 46.3198 160.369 46.7109 160.577C47.102 160.783 47.4053 161.099 47.6207 161.527C47.8395 161.951 47.9489 162.491 47.9489 163.148V168H46.7756V163.227C46.7756 162.621 46.6181 162.152 46.3033 161.82C45.9917 161.486 45.5592 161.318 45.0057 161.318C44.6212 161.318 44.2765 161.399 43.9716 161.562C43.67 161.724 43.4313 161.961 43.2557 162.273C43.0833 162.584 42.9972 162.962 42.9972 163.406Z" fill="white"/>
<path d="M32.054 21V20.1051L35.4148 16.4261C35.8092 15.9953 36.134 15.6207 36.3892 15.3026C36.6444 14.9811 36.8333 14.6795 36.956 14.3977C37.0819 14.1127 37.1449 13.8144 37.1449 13.5028C37.1449 13.1449 37.0587 12.835 36.8864 12.5732C36.7173 12.3113 36.4853 12.1091 36.1903 11.9666C35.8954 11.8241 35.5639 11.7528 35.196 11.7528C34.8049 11.7528 34.4635 11.834 34.1719 11.9964C33.8835 12.1555 33.6598 12.3793 33.5007 12.6676C33.3449 12.956 33.267 13.294 33.267 13.6818H32.0938C32.0938 13.0852 32.2313 12.5616 32.5064 12.1108C32.7815 11.66 33.156 11.3087 33.63 11.0568C34.1072 10.8049 34.6425 10.679 35.2358 10.679C35.8324 10.679 36.361 10.8049 36.8217 11.0568C37.2824 11.3087 37.6437 11.6484 37.9055 12.076C38.1674 12.5036 38.2983 12.9792 38.2983 13.5028C38.2983 13.8774 38.2304 14.2436 38.0945 14.6016C37.9619 14.9562 37.7299 15.3523 37.3984 15.7898C37.0703 16.224 36.6146 16.7543 36.0313 17.3807L33.7443 19.8267V19.9062H38.4773V21H32.054ZM41.7237 16.4062V21H40.5504V10.8182H41.7237V14.5568H41.8232C42.0021 14.1624 42.2706 13.8492 42.6286 13.6172C42.9898 13.3819 43.4704 13.2642 44.0703 13.2642C44.5907 13.2642 45.0464 13.3686 45.4375 13.5774C45.8286 13.7829 46.1319 14.0994 46.3473 14.527C46.5661 14.9512 46.6754 15.4915 46.6754 16.1477V21H45.5021V16.2273C45.5021 15.6207 45.3447 15.1518 45.0298 14.8203C44.7183 14.4856 44.2857 14.3182 43.7322 14.3182C43.3478 14.3182 43.0031 14.3994 42.6982 14.5618C42.3965 14.7242 42.1579 14.9612 41.9822 15.2727C41.8099 15.5843 41.7237 15.9621 41.7237 16.4062Z" fill="#4E8D83"/>
<path d="M17.63 137.319L17.638 138.796L5.97867 134.586L5.97079 133.132L17.5838 128.796L17.5918 130.273L7.81536 133.804L7.81586 133.894L17.63 137.319ZM13.0817 136.798L13.0494 130.843L14.2994 130.837L14.3317 136.791L13.0817 136.798ZM8.81509 121.17L17.5597 124.35L17.5671 125.714L8.85746 128.988L8.84958 127.534L15.791 125.087L15.7905 124.996L8.82298 122.625L8.81509 121.17ZM17.7247 117.049C17.7277 117.602 17.6263 118.105 17.4204 118.557C17.2107 119.009 16.9077 119.368 16.5114 119.635C16.1114 119.903 15.6272 120.038 15.0591 120.041C14.5591 120.044 14.1532 119.948 13.8416 119.752C13.5261 119.557 13.2785 119.295 13.0987 118.966C12.9189 118.638 12.7843 118.275 12.695 117.878C12.6019 117.477 12.5278 117.074 12.4726 116.669C12.4015 116.139 12.348 115.709 12.3122 115.38C12.2725 115.047 12.2087 114.805 12.1207 114.654C12.0328 114.499 11.8808 114.422 11.6649 114.423L11.6195 114.423C11.0589 114.426 10.6241 114.582 10.3152 114.891C10.0062 115.195 9.85341 115.656 9.85675 116.274C9.86022 116.914 10.0031 117.415 10.2854 117.777C10.5676 118.139 10.8683 118.393 11.1872 118.539L10.7396 119.815C10.2081 119.59 9.79355 119.289 9.49605 118.912C9.19474 118.531 8.98415 118.116 8.86428 117.666C8.74061 117.212 8.67758 116.765 8.6752 116.326C8.67368 116.045 8.70602 115.723 8.77223 115.359C8.83464 114.991 8.96718 114.637 9.16988 114.295C9.37255 113.949 9.67971 113.661 10.0914 113.432C10.503 113.202 11.0554 113.085 11.7486 113.082L17.4985 113.05L17.5058 114.391L16.324 114.398L16.3243 114.466C16.5142 114.556 16.7177 114.706 16.9347 114.917C17.1518 115.128 17.337 115.409 17.4904 115.761C17.6439 116.112 17.722 116.542 17.7247 117.049ZM16.5191 116.851C16.5162 116.321 16.4096 115.875 16.1993 115.512C15.989 115.146 15.7186 114.871 15.388 114.687C15.0574 114.499 14.7103 114.407 14.3467 114.409L13.1195 114.415C13.1879 114.472 13.2511 114.596 13.309 114.789C13.363 114.978 13.4116 115.198 13.4546 115.447C13.4938 115.693 13.5292 115.934 13.5608 116.168C13.5885 116.399 13.6123 116.587 13.632 116.731C13.6794 117.079 13.755 117.404 13.8589 117.707C13.959 118.005 14.1099 118.247 14.3117 118.431C14.5096 118.612 14.7791 118.702 15.12 118.7C15.5859 118.697 15.9372 118.523 16.174 118.177C16.4069 117.827 16.522 117.385 16.5191 116.851ZM17.4852 110.603L8.75808 110.65L8.75081 109.309L17.478 109.262L17.4852 110.603ZM7.29986 109.976C7.30128 110.238 7.21348 110.464 7.03648 110.654C6.85946 110.841 6.64595 110.935 6.39596 110.936C6.14596 110.937 5.93144 110.846 5.75241 110.661C5.57336 110.473 5.48312 110.248 5.4817 109.986C5.48029 109.725 5.56809 109.501 5.74511 109.314C5.92211 109.124 6.13561 109.028 6.38561 109.027C6.63561 109.026 6.85013 109.119 7.02918 109.307C7.20822 109.492 7.29844 109.715 7.29986 109.976ZM5.82119 105.528L17.4574 105.465L17.4646 106.806L5.82845 106.869L5.82119 105.528ZM17.6347 100.44C17.6377 100.993 17.5362 101.496 17.3304 101.948C17.1207 102.399 16.8177 102.759 16.4214 103.026C16.0213 103.294 15.5372 103.429 14.969 103.432C14.4691 103.435 14.0632 103.338 13.7516 103.143C13.4361 102.948 13.1885 102.686 13.0087 102.357C12.8288 102.029 12.6943 101.666 12.605 101.269C12.5119 100.868 12.4378 100.465 12.3826 100.06C12.3115 99.5296 12.258 99.1 12.2222 98.7706C12.1825 98.4375 12.1187 98.1954 12.0307 98.0444C11.9428 97.8896 11.7908 97.8127 11.5749 97.8139L11.5295 97.8142C10.9689 97.8172 10.5341 97.973 10.2252 98.2815C9.9162 98.5862 9.76339 99.0472 9.76674 99.6646C9.77021 100.305 9.91308 100.806 10.1953 101.168C10.4776 101.53 10.7782 101.784 11.0972 101.93L10.6496 103.205C10.118 102.981 9.70353 102.68 9.40603 102.303C9.10472 101.922 8.89413 101.507 8.77427 101.056C8.65059 100.603 8.58756 100.156 8.58518 99.7165C8.58366 99.4362 8.61601 99.1141 8.68222 98.7501C8.74462 98.3823 8.87717 98.0274 9.07986 97.6854C9.28254 97.3396 9.5897 97.0519 10.0013 96.8224C10.413 96.5929 10.9654 96.4763 11.6586 96.4725L17.4085 96.4414L17.4157 97.7823L16.2339 97.7887L16.2343 97.8568C16.4242 97.9467 16.6277 98.0971 16.8447 98.3081C17.0618 98.519 17.247 98.8002 17.4004 99.1517C17.5539 99.5031 17.6319 99.9326 17.6347 100.44ZM16.4291 100.242C16.4262 99.7119 16.3196 99.2655 16.1093 98.903C15.899 98.5367 15.6285 98.2616 15.298 98.0778C14.9674 97.8902 14.6203 97.7974 14.2567 97.7994L13.0294 97.806C13.0979 97.8625 13.1611 97.9871 13.219 98.18C13.273 98.3691 13.3216 98.5885 13.3646 98.8383C13.4038 99.0843 13.4392 99.3247 13.4708 99.5593C13.4985 99.7903 13.5223 99.9776 13.542 100.121C13.5893 100.47 13.665 100.795 13.7689 101.098C13.869 101.396 14.0199 101.638 14.2217 101.822C14.4196 102.003 14.6891 102.093 15.03 102.091C15.4959 102.088 15.8472 101.914 16.084 101.568C16.3169 101.218 16.432 100.776 16.4291 100.242ZM17.3942 93.8121L5.75803 93.8752L5.75076 92.5343L10.0462 92.511L10.0455 92.3974C9.89349 92.2997 9.69957 92.1644 9.46378 91.9915C9.22419 91.8147 9.01069 91.5621 8.8233 91.2336C8.63211 90.9013 8.53497 90.451 8.53189 89.8828C8.52791 89.148 8.7081 88.4993 9.07248 87.9367C9.43686 87.3741 9.95532 86.9338 10.6278 86.6158C11.3004 86.2977 12.095 86.1362 13.0116 86.1312C13.9359 86.1262 14.7378 86.2791 15.4176 86.5898C16.0935 86.9005 16.6186 87.3333 16.9928 87.8881C17.3632 88.4429 17.5504 89.084 17.5544 89.8112C17.5574 90.3718 17.467 90.8212 17.2833 91.1593C17.0957 91.4974 16.8831 91.7581 16.6454 91.9412C16.404 92.1243 16.204 92.2655 16.0454 92.3649L16.0463 92.524L17.3872 92.5167L17.3942 93.8121ZM13.0235 92.5176C13.6826 92.5141 14.2635 92.4143 14.7662 92.2184C15.2652 92.0225 15.6557 91.7382 15.9378 91.3655C16.216 90.9927 16.3537 90.5374 16.3508 89.9996C16.3478 89.439 16.1975 88.972 15.9 88.5986C15.5987 88.2214 15.1957 87.9395 14.6909 87.7528C14.1823 87.5624 13.6174 87.4689 12.9962 87.4723C12.3825 87.4756 11.83 87.5733 11.3386 87.7653C10.8434 87.9536 10.4529 88.2379 10.1671 88.6183C9.87747 88.9949 9.7342 89.4672 9.73728 90.0354C9.74023 90.5809 9.88097 91.0384 10.1595 91.4081C10.4342 91.7779 10.8183 92.0561 11.3118 92.2428C11.8014 92.4296 12.372 92.5212 13.0235 92.5176ZM5.69789 82.7788L17.3341 82.7157L17.3414 84.0566L5.70516 84.1197L5.69789 82.7788ZM17.4828 76.5998C17.4873 77.4407 17.3056 78.167 16.9377 78.7789C16.566 79.387 16.0458 79.8576 15.3772 80.1908C14.7047 80.5202 13.9215 80.6873 13.0276 80.6922C12.1337 80.697 11.3449 80.5384 10.6613 80.2163C9.97397 79.8905 9.4374 79.4351 9.05165 78.85C8.66209 78.2612 8.46517 77.5729 8.4609 76.785C8.45844 76.3305 8.53176 75.8812 8.68087 75.4372C8.82998 74.9932 9.07401 74.5885 9.41294 74.223C9.74808 73.8576 10.1935 73.5654 10.7491 73.3464C11.3048 73.1275 11.9898 73.0158 12.8042 73.0114L13.3723 73.0084L13.4088 79.7355L12.2497 79.7418L12.2206 74.3782C11.7282 74.3809 11.2894 74.4818 10.9041 74.6808C10.5188 74.8761 10.2153 75.1543 9.99382 75.5153C9.77226 75.8726 9.6628 76.2937 9.66543 76.7785C9.66832 77.3126 9.8034 77.774 10.0707 78.1627C10.3341 78.5476 10.6766 78.8431 11.0982 79.0492C11.5198 79.2552 11.9711 79.3569 12.4522 79.3543L13.2249 79.3502C13.884 79.3466 14.442 79.2299 14.8991 79.0002C15.3524 78.7666 15.6973 78.4447 15.9337 78.0343C16.1663 77.624 16.2812 77.148 16.2782 76.6063C16.2763 76.254 16.2254 75.9361 16.1253 75.6526C16.0215 75.3652 15.8686 75.118 15.6668 74.9107C15.4611 74.7035 15.2064 74.5439 14.9028 74.4319L15.2594 73.1345C15.6995 73.2685 16.0871 73.4955 16.4222 73.8157C16.7535 74.1359 17.0132 74.5322 17.2014 75.0047C17.3858 75.4772 17.4796 76.0089 17.4828 76.5998ZM8.4982 62.6994L9.63455 62.6932L9.65906 67.2159L8.52271 67.222L8.4982 62.6994ZM6.42469 65.9152L6.41742 64.5743L14.7355 64.5292C15.1143 64.5272 15.3981 64.4707 15.5868 64.3599C15.7718 64.2452 15.8961 64.1006 15.9595 63.926C16.0191 63.7477 16.0484 63.56 16.0474 63.363C16.0466 63.2153 16.0383 63.0941 16.0227 62.9995C16.0032 62.9049 15.9877 62.8293 15.976 62.7725L17.179 62.4932C17.2136 62.584 17.2484 62.7107 17.2834 62.8734C17.3221 63.036 17.3422 63.2424 17.3435 63.4924C17.3456 63.8712 17.2662 64.2428 17.1053 64.6073C16.9443 64.968 16.6979 65.2686 16.3658 65.5091C16.0338 65.7457 15.6139 65.8654 15.1064 65.8682L6.42469 65.9152ZM17.2144 60.6351L8.48727 60.6824L8.48 59.3415L17.2071 59.2942L17.2144 60.6351ZM7.02905 60.0084C7.03047 60.2698 6.94267 60.4957 6.76567 60.686C6.58865 60.8726 6.37514 60.9666 6.12515 60.9679C5.87515 60.9693 5.66063 60.8776 5.4816 60.693C5.30255 60.5046 5.21231 60.2797 5.21089 60.0183C5.20948 59.7569 5.29728 59.533 5.4743 59.3464C5.6513 59.1561 5.8648 59.0602 6.1148 59.0588C6.36479 59.0575 6.57932 59.151 6.75837 59.3394C6.93741 59.5241 7.02763 59.7471 7.02905 60.0084ZM17.1938 56.8383L8.46669 56.8856L8.45967 55.5901L9.82329 55.5827L9.82267 55.4691C9.35578 55.2898 8.99245 54.9982 8.73269 54.5943C8.46913 54.1904 8.33581 53.7044 8.33273 53.1362C8.32961 52.5605 8.4577 52.0806 8.71698 51.6966C8.97246 51.3089 9.33257 51.0058 9.7973 50.7873L9.7968 50.6964C9.34484 50.4754 8.98508 50.1421 8.71751 49.6966C8.44615 49.2511 8.30878 48.7158 8.30539 48.0908C8.30116 47.3106 8.54202 46.671 9.02795 46.1721C9.51011 45.6733 10.2644 45.4211 11.2909 45.4155L17.1318 45.3839L17.139 46.7248L11.2982 46.7564C10.6543 46.7599 10.195 46.9385 9.9204 47.2923C9.6458 47.6461 9.50979 48.0616 9.51238 48.5389C9.51571 49.1525 9.70389 49.6268 10.0769 49.962C10.4462 50.2971 10.913 50.4631 11.4774 50.4601L17.1591 50.4293L17.1665 51.7929L11.1893 51.8253C10.6931 51.828 10.2944 51.9911 9.99308 52.3147C9.68801 52.6383 9.53685 53.0539 9.5396 53.5615C9.54149 53.91 9.63606 54.2352 9.8233 54.5373C10.0105 54.8355 10.2694 55.0765 10.6 55.2603C10.9267 55.4404 11.3041 55.5292 11.7321 55.5269L17.1866 55.4974L17.1938 56.8383ZM17.2805 39.2722C17.285 40.1131 17.1033 40.8395 16.7354 41.4513C16.3637 42.0594 15.8435 42.53 15.1749 42.8632C14.5024 43.1926 13.7192 43.3597 12.8253 43.3646C11.9314 43.3694 11.1426 43.2108 10.459 42.8888C9.77166 42.5629 9.2351 42.1075 8.84934 41.5225C8.45978 40.9337 8.26287 40.2453 8.2586 39.4574C8.25614 39.0029 8.32946 38.5536 8.47857 38.1096C8.62768 37.6656 8.8717 37.2609 9.21064 36.8954C9.54578 36.53 9.99117 36.2378 10.5468 36.0189C11.1025 35.7999 11.7875 35.6883 12.6018 35.6839L13.17 35.6808L13.2065 42.4079L12.0474 42.4142L12.0183 37.0507C11.5259 37.0533 11.0871 37.1542 10.7018 37.3533C10.3165 37.5485 10.013 37.8267 9.79151 38.1878C9.56996 38.545 9.4605 38.9661 9.46313 39.4509C9.46602 39.985 9.6011 40.4464 9.86836 40.8351C10.1318 41.22 10.4743 41.5155 10.8959 41.7216C11.3175 41.9276 11.7688 42.0294 12.2499 42.0268L13.0226 42.0226C13.6817 42.019 14.2397 41.9023 14.6968 41.6726C15.1501 41.4391 15.495 41.1171 15.7314 40.7067C15.964 40.2964 16.0789 39.8204 16.0759 39.2787C16.074 38.9264 16.0231 38.6085 15.923 38.325C15.8192 38.0377 15.6663 37.7904 15.4645 37.5831C15.2588 37.3759 15.0041 37.2163 14.7005 37.1043L15.0571 35.8069C15.4972 35.9409 15.8848 36.168 16.2199 36.4881C16.5512 36.8083 16.8109 37.2046 16.9991 37.6771C17.1835 38.1496 17.2773 38.6813 17.2805 39.2722Z" fill="#6E7E7C"/>
<defs>
<filter id="filter0_d_42_361" x="24" y="0" width="34" height="187" filterUnits="userSpaceOnUse" color-interpolation-filters="sRGB">
<feFlood flood-opacity="0" result="BackgroundImageFix"/>
<feColorMatrix in="SourceAlpha" type="matrix" values="0 0 0 0 0 0 0 0 0 0 0 0 0 0 0 0 0 0 127 0" result="hardAlpha"/>
<feOffset dy="4"/>
<feGaussianBlur stdDeviation="2"/>
<feComposite in2="hardAlpha" operator="out"/>
<feColorMatrix type="matrix" values="0 0 0 0 0 0 0 0 0 0 0 0 0 0 0 0 0 0 0.25 0"/>
<feBlend mode="normal" in2="BackgroundImageFix" result="effect1_dropShadow_42_361"/>
<feBlend mode="normal" in="SourceGraphic" in2="effect1_dropShadow_42_361" result="shape"/>
</filter>
<linearGradient id="paint0_linear_42_361" x1="28" y1="192" x2="207" y2="192" gradientUnits="userSpaceOnUse">
<stop stop-color="#62918A"/>
<stop offset="0.711544" stop-color="#B8E5DE"/>
</linearGradient>
</defs>
</svg>
